Coordinates
version=1
nRows=9
nColumns=24
inDegrees=yes

Units are S.I. units (second, meters, Newtons, ...)
Angles are in degrees.

endheader
time	pelvis_tilt	pelvis_list	pelvis_rotation	pelvis_tx	pelvis_ty	pelvis_tz	hip_flexion_r	hip_adduction_r	hip_rotation_r	knee_angle_r	ankle_angle_r	subtalar_angle_r	mtp_angle_r	hip_flexion_l	hip_adduction_l	hip_rotation_l	knee_angle_l	ankle_angle_l	subtalar_angle_l	mtp_angle_l	lumbar_extension	lumbar_bending	lumbar_rotation
      0.44800000	     -1.70618648	     -1.25398479	      4.90675964	     -0.76090558	      0.89315600	      0.29948294	     29.44318138	      3.40820144	     -6.90112440	    -18.02700165	      2.66717031	      0.52978554	      0.68878886	    -14.40365904	      0.44811886	     -0.40423346	    -10.24644053	     18.60533322	      3.09679445	      1.31989651	     -9.46251327	     -0.22370655	     -7.54711373
      0.45216667	     -1.76449743	     -1.24908734	      4.96959691	     -0.75481928	      0.89198839	      0.29956685	     29.38345811	      3.52834447	     -6.65288912	    -17.75399569	      2.50899528	      0.11583893	      3.68715331	    -14.31288934	      0.36476204	     -0.50133026	    -11.19032759	     18.65367376	      3.35720260	      6.47420015	     -9.34367941	     -0.19366010	     -7.45571732
      0.45633333	     -1.82048111	     -1.26058827	      5.03961571	     -0.74869958	      0.89089345	      0.29963858	     29.31313613	      3.65934705	     -6.42401611	    -17.56748849	      2.33597280	     -0.27014991	      3.64130435	    -14.20451443	      0.26709418	     -0.52867739	    -12.17739424	     18.76105282	      3.57482159	      6.56001138	     -9.22192476	     -0.13931808	     -7.43967580
      0.46050000	     -1.86101245	     -1.28717642	      5.10289908	     -0.74256133	      0.88984923	      0.29973177	     29.24138839	      3.80608634	     -6.21040211	    -17.50859639	      2.16016511	     -0.68302402	      3.60609077	    -14.06349910	      0.14286997	     -0.61755644	    -13.26944295	     18.84990137	      3.88953652	      6.70572428	     -9.12977033	     -0.05899618	     -7.40614911
      0.46466667	     -1.89864189	     -1.32502026	      5.15543150	     -0.73639804	      0.88884486	      0.29986842	     29.18546929	      3.96815602	     -6.00214617	    -17.57633917	      1.95341109	     -1.15726243	      3.58151107	    -13.89639907	     -0.00108439	     -0.73098623	    -14.42162588	     18.90061438	      4.24604467	      6.93290144	     -9.03499462	      0.03912320	     -7.35690521
      0.46883333	     -1.95001594	     -1.35784900	      5.20913923	     -0.73023036	      0.88787124	      0.29999725	     29.15110171	      4.11804055	     -5.79999100	    -17.74049975	      1.73396840	     -1.63086547	      3.57257045	    -13.67379840	     -0.13911282	     -0.82550133	    -15.65117843	     18.89054469	      4.54553657	      7.19763486	     -8.91994197	      0.12116732	     -7.28716006
      0.47300000	     -2.00025359	     -1.39847525	      5.25173037	     -0.72405029	      0.88694027	      0.30016033	     29.13528296	      4.27838339	     -5.60206922	    -18.02027236	      1.49859642	     -2.14458830	      3.57624281	    -13.41440401	     -0.29049186	     -0.93990235	    -16.95315719	     18.82902080	      4.86395189	      7.52847788	     -8.80727567	      0.21821529	     -7.20022464
      0.47716667	     -2.05881117	     -1.43803133	      5.28983262	     -0.71787201	      0.88604251	      0.30034438	     29.14619589	      4.43534333	     -5.40868638	    -18.40481929	      1.26599124	     -2.67156186	      3.58944039	    -13.10154793	     -0.44261127	     -1.03920080	    -18.33667546	     18.70763721	      5.15773447	      7.90562407	     -8.68269413	      0.31544609	     -7.09201397
      0.48133333	     -2.06908922	     -1.51623791	      5.30142464	     -0.71163803	      0.88523344	      0.30058559	     29.12902343	      4.64451213	     -5.22963085	    -18.89871458	      1.04256458	     -3.26832720	      3.62940536	    -12.80843158	     -0.65839725	     -1.26508270	    -19.78255748	     18.51903466	      5.61588208	      8.65503609	     -8.61645990	      0.49476199	     -6.96828219
